<svg width="397" height="245" viewBox="0 0 397 245" fill="none" xmlns="http://www.w3.org/2000/svg">
<path d="M367.925 0H28.626C12.8259 0 0 12.8259 0 28.564V215.377C0 231.177 12.8259 244.003 28.626 244.003H367.987C383.787 244.003 396.613 231.177 396.551 215.438V28.564C396.551 12.8259 383.725 0 367.925 0ZM209.738 186.812H171.632V112.459L133.526 160.107L95.42 112.459V186.812H57.19V57.19H95.2961L133.402 104.838L171.508 57.19H209.614V186.812H209.738ZM293.571 188.733L236.381 122.001H274.487V57.19H312.593V122.001H350.699L293.571 188.733Z" fill="black"/>
<path d="M274.5 122.5V57H313.5V122L350.5 122.5L293.5 188.5L236.5 122L274.5 122.5Z" fill="#E85353" stroke="#E85353"/>
</svg>
